<svg version="1.2" baseProfile="tiny-ps" xmlns="http://www.w3.org/2000/svg" viewBox="0 0 336 336" width="36" height="36">
	<title>Gatsby_Logo-ai</title>
	<style>
		tspan { white-space:pre }
		.shp0 { fill: #000000 } 
		.shp1 { fill: #ffffff } 
		.shp2 { fill: #663399 } 
	</style>
	<g id="Ebene 1">
		<g id="&lt;Group&gt;">
			<path id="&lt;Compound Path&gt;" fill-rule="evenodd" class="shp0" d="M787.66 144L787.66 264L754.09 264L754.09 248.4C742.1 266.4 726.51 267.6 716.92 267.6C679.76 267.6 655.78 238.8 655.78 204C655.78 168 679.76 140.4 714.53 140.4C724.12 140.4 742.1 141.6 752.89 159.6L752.89 144L787.66 144ZM691.75 204C691.75 223.2 704.93 237.6 725.32 237.6C744.5 237.6 758.88 223.2 758.88 204C758.88 184.8 745.7 170.4 725.32 170.4C706.13 170.4 691.75 184.8 691.75 204Z" />
			<path id="&lt;Path&gt;" class="shp0" d="M853.59 172.8L853.59 264L820.03 264L820.03 172.8L806.84 172.8L806.84 144L820.03 144L820.03 103.2L853.59 103.2L853.59 144L876.37 144L876.37 172.8L853.59 172.8Z" />
			<path id="&lt;Path&gt;" class="shp0" d="M955.5 172.8C947.11 165.6 939.91 164.4 936.32 164.4C927.92 164.4 923.13 168 923.13 174C923.13 177.6 924.33 181.2 933.92 184.8L942.31 187.2C951.9 190.8 966.29 194.4 972.28 204C975.88 208.8 978.28 216 978.28 224.4C978.28 235.2 974.68 246 965.09 254.4C955.5 262.8 943.51 267.6 929.12 267.6C903.95 267.6 890.76 255.6 882.37 247.2L900.35 226.8C907.54 234 917.13 241.2 926.73 241.2C936.32 241.2 943.51 236.4 943.51 228C943.51 220.8 937.52 217.2 932.72 216L925.53 213.6C917.13 210 907.54 206.4 900.35 199.2C894.36 193.2 890.76 186 890.76 176.4C890.76 164.4 896.75 154.8 902.75 148.8C912.34 141.6 924.33 140.4 933.92 140.4C942.31 140.4 956.7 141.6 972.28 153.6L955.5 172.8Z" />
			<path id="&lt;Compound Path&gt;" fill-rule="evenodd" class="shp0" d="M1028.63 159.6C1040.62 142.8 1057.4 140.4 1066.99 140.4C1101.76 140.4 1125.74 168 1125.74 204C1125.74 240 1101.76 267.6 1065.79 267.6C1058.6 267.6 1040.62 266.4 1027.43 248.4L1027.43 264L995.06 264L995.06 62.4L1028.63 62.4L1028.63 159.6ZM1025.03 204C1025.03 223.2 1038.22 237.6 1058.6 237.6C1077.78 237.6 1092.17 223.2 1092.17 204C1092.17 184.8 1078.98 170.4 1058.6 170.4C1038.22 170.4 1025.03 184.8 1025.03 204Z" />
			<path id="&lt;Path&gt;" class="shp0" d="M1180.89 246L1123.34 144L1162.9 144L1200.07 212.4L1233.64 144L1272 144L1176.09 327.6L1137.73 327.6L1180.89 246Z" />
			<path id="&lt;Path&gt;" class="shp0" d="M647.39 164.4L613.82 164.4L563.47 164.4L563.47 198L607.83 198C600.63 220.8 583.85 236.4 552.68 236.4C517.91 236.4 492.74 207.6 492.74 172.8C492.74 138 516.71 108 551.48 108C570.66 108 589.84 117.6 601.83 133.2L629.41 115.2C611.42 90 582.65 75.6 551.48 75.6C498.73 75.6 455.57 118.8 455.57 172.8C455.57 226.8 496.33 270 551.48 270C606.63 270 647.39 226.8 647.39 172.8C648.59 169.2 647.39 166.8 647.39 164.4Z" />
		</g>
		<g id="&lt;Group&gt;">
			<g id="&lt;Group&gt;">
				<path id="&lt;Path&gt;" class="shp1" d="M299.72 168L215.8 168L215.8 192L273.34 192C264.95 228 238.57 258 203.81 270L65.94 132C80.32 90 121.09 60 167.84 60C203.81 60 236.18 78 256.56 105.6L274.54 90C250.56 57.6 212.2 36 167.84 36C105.5 36 52.75 80.4 39.56 139.2L197.81 297.6C255.36 283.2 299.72 230.4 299.72 168Z" />
				<path id="&lt;Path&gt;" class="shp1" d="M35.97 169.2C35.97 202.8 49.15 235.2 74.33 260.4C99.51 285.6 133.07 298.8 165.44 298.8L35.97 169.2Z" />
			</g>
			<path id="&lt;Compound Path&gt;" fill-rule="evenodd" class="shp2" d="M335.68 168C335.68 260.4 260.15 336 167.84 336C75.53 336 0 260.4 0 168C0 75.6 75.53 0 167.84 0C260.15 0 335.68 75.6 335.68 168ZM166.64 300L35.97 170.4C35.97 202.8 49.15 236.4 74.33 261.6C99.51 286.8 133.07 298.8 166.64 300ZM299.72 168L215.8 168L215.8 192L273.34 192C264.95 228 238.57 258 203.81 270L65.94 132C81.52 90 121.09 60 167.84 60C203.81 60 236.18 78 256.56 105.6L274.54 90C250.56 57.6 212.2 36 167.84 36C105.5 36 52.75 80.4 39.56 139.2L196.61 296.4C255.36 283.2 299.72 230.4 299.72 168Z" />
		</g>
	</g>
</svg>