<svg version="1.2" baseProfile="tiny-ps" xmlns="http://www.w3.org/2000/svg" viewBox="0 0 64 64" width="36" height="36">
	<title>graphql-svg</title>
	<style>
		tspan { white-space:pre }
		.shp0 { fill: #e535ab } 
	</style>
	<path id="Layer" fill-rule="evenodd" class="shp0" d="M50.11 15.98C50.2 15.89 50.29 15.8 50.39 15.71C50.48 15.62 50.58 15.54 50.68 15.46C50.78 15.38 50.89 15.3 50.99 15.23C51.1 15.16 51.21 15.09 51.32 15.02C51.93 14.67 52.6 14.45 53.3 14.35C53.99 14.26 54.7 14.31 55.38 14.49C56.05 14.67 56.69 14.99 57.25 15.42C57.8 15.84 58.27 16.37 58.62 16.98C58.97 17.59 59.2 18.26 59.29 18.96C59.38 19.65 59.33 20.36 59.15 21.04C58.97 21.71 58.65 22.35 58.23 22.91C57.8 23.46 57.27 23.93 56.66 24.28C56.55 24.34 56.44 24.4 56.32 24.46C56.21 24.52 56.09 24.57 55.97 24.62C55.85 24.66 55.73 24.71 55.61 24.74C55.49 24.78 55.36 24.82 55.24 24.85L55.24 39.08C55.73 39.2 56.21 39.39 56.65 39.65C57.26 39.99 57.79 40.46 58.22 41.02C58.65 41.57 58.96 42.21 59.15 42.89C59.33 43.57 59.37 44.27 59.28 44.97C59.19 45.67 58.96 46.34 58.61 46.95C57.14 49.5 53.86 50.37 51.31 48.9C51.18 48.83 51.06 48.76 50.94 48.68C50.83 48.6 50.71 48.51 50.6 48.42C50.49 48.33 50.38 48.24 50.28 48.14C50.18 48.04 50.08 47.94 49.98 47.83L37.74 54.9C38 55.7 38.07 56.56 37.95 57.39C37.82 58.23 37.49 59.02 37 59.71C36.5 60.39 35.85 60.95 35.1 61.34C34.35 61.72 33.51 61.92 32.67 61.92C31.97 61.93 31.27 61.79 30.62 61.52C29.97 61.25 29.39 60.86 28.89 60.36C28.39 59.87 28 59.28 27.73 58.63C27.46 57.98 27.33 57.29 27.33 56.58C27.33 56.06 27.4 55.55 27.54 55.07L15.22 47.96C15.14 48.05 15.04 48.14 14.95 48.23C14.86 48.31 14.76 48.4 14.66 48.47C14.56 48.55 14.46 48.63 14.35 48.7C14.25 48.77 14.14 48.84 14.03 48.9C11.46 50.37 8.2 49.5 6.73 46.94C6.38 46.33 6.15 45.66 6.06 44.97C5.97 44.27 6.02 43.57 6.2 42.89C6.38 42.21 6.69 41.58 7.12 41.02C7.55 40.46 8.08 39.99 8.69 39.64C9.13 39.39 9.6 39.2 10.09 39.08L10.09 24.85C9.97 24.82 9.85 24.78 9.72 24.74C9.6 24.71 9.48 24.66 9.36 24.61C9.24 24.57 9.13 24.52 9.01 24.46C8.9 24.4 8.78 24.34 8.67 24.28C6.12 22.81 5.24 19.54 6.71 16.98C8.18 14.43 11.46 13.55 14.01 15.02C14.46 15.28 14.86 15.6 15.22 15.98L27.54 8.86C27.51 8.74 27.48 8.61 27.45 8.49C27.42 8.36 27.4 8.23 27.38 8.11C27.36 7.98 27.35 7.85 27.34 7.73C27.33 7.6 27.33 7.47 27.33 7.34C27.33 6.64 27.46 5.94 27.73 5.3C28 4.65 28.39 4.06 28.89 3.56C29.38 3.07 29.97 2.67 30.62 2.41C31.27 2.14 31.96 2 32.67 2C33.37 2 34.06 2.14 34.71 2.41C35.36 2.67 35.95 3.07 36.44 3.56C36.94 4.06 37.33 4.65 37.6 5.3C37.87 5.94 38.01 6.64 38.01 7.34C38.01 7.87 37.93 8.38 37.79 8.87L50.11 15.98ZM36.36 11.2L52.49 39.14C52.56 39.12 52.63 39.1 52.7 39.09L52.7 24.84C52.35 24.75 52.01 24.63 51.69 24.48C51.37 24.32 51.06 24.14 50.77 23.92C50.49 23.7 50.22 23.46 49.99 23.19C49.75 22.92 49.54 22.63 49.36 22.32C49.18 22.01 49.04 21.69 48.92 21.35C48.81 21.01 48.73 20.66 48.69 20.31C48.64 19.95 48.64 19.6 48.66 19.24C48.69 18.89 48.76 18.53 48.85 18.19L36.5 11.06C36.46 11.11 36.41 11.16 36.36 11.2ZM28.83 11.05L16.48 18.18C16.58 18.53 16.64 18.88 16.67 19.23C16.7 19.59 16.69 19.95 16.65 20.3C16.6 20.66 16.52 21.01 16.41 21.35C16.3 21.69 16.15 22.01 15.97 22.32C15.79 22.63 15.58 22.92 15.35 23.19C15.11 23.46 14.85 23.7 14.56 23.92C14.27 24.14 13.97 24.32 13.64 24.47C13.32 24.63 12.98 24.75 12.64 24.84L12.64 39.09C12.65 39.09 12.67 39.1 12.69 39.1C12.71 39.11 12.72 39.11 12.74 39.12C12.76 39.12 12.78 39.13 12.79 39.13C12.81 39.14 12.83 39.14 12.85 39.15L28.98 11.21C28.93 11.16 28.88 11.11 28.83 11.05ZM34.16 12.47C33.92 12.54 33.67 12.59 33.42 12.63C33.17 12.66 32.92 12.68 32.67 12.68C32.42 12.68 32.17 12.67 31.92 12.63C31.67 12.59 31.42 12.54 31.18 12.47L15.05 40.41C15.14 40.5 15.23 40.59 15.31 40.68C15.4 40.78 15.48 40.87 15.56 40.97C15.64 41.07 15.71 41.18 15.78 41.28C15.86 41.39 15.92 41.49 15.99 41.6C16.05 41.71 16.11 41.83 16.16 41.94C16.22 42.05 16.27 42.17 16.32 42.29C16.37 42.4 16.41 42.52 16.45 42.64C16.49 42.77 16.52 42.89 16.55 43.01L48.78 43.01C48.84 42.76 48.92 42.52 49.02 42.29C49.11 42.05 49.22 41.82 49.35 41.6C49.48 41.38 49.62 41.17 49.78 40.97C49.93 40.77 50.1 40.58 50.29 40.4L34.16 12.47ZM48.89 45.9C48.88 45.87 48.87 45.84 48.86 45.82C48.85 45.79 48.84 45.76 48.84 45.73C48.83 45.7 48.82 45.67 48.81 45.64C48.8 45.61 48.8 45.58 48.79 45.55L16.54 45.55C16.54 45.57 16.53 45.59 16.53 45.6C16.53 45.62 16.52 45.64 16.52 45.66C16.51 45.67 16.51 45.69 16.5 45.71C16.5 45.72 16.49 45.74 16.49 45.76L28.82 52.88C29.07 52.62 29.34 52.39 29.64 52.18C29.93 51.98 30.25 51.81 30.58 51.67C30.91 51.53 31.25 51.42 31.6 51.35C31.95 51.28 32.31 51.24 32.67 51.24C33.04 51.24 33.41 51.28 33.77 51.36C34.13 51.43 34.49 51.55 34.83 51.7C35.17 51.85 35.49 52.03 35.79 52.25C36.09 52.47 36.37 52.71 36.62 52.99L48.89 45.9ZM36.62 52.99L36.62 52.99L36.62 52.99Z" />
</svg>