<svg version="1.2" baseProfile="tiny-ps" xmlns="http://www.w3.org/2000/svg" viewBox="0 0 306 180" width="61" height="36">
	<title>aws-svg</title>
	<style>
		tspan { white-space:pre }
		.shp0 { fill: #252f3e } 
		.shp1 { fill: #ff9900 } 
	</style>
	<path id="Layer" fill-rule="evenodd" class="shp0" d="M87.4 65.4C87.4 69.1 87.8 72.1 88.5 74.3C89.3 76.5 90.3 78.9 91.7 81.5C92.2 82.3 92.4 83.1 92.4 83.8C92.4 84.8 91.8 85.8 90.5 86.8L84.2 91C83.3 91.6 82.4 91.9 81.6 91.9C80.6 91.9 79.6 91.4 78.6 90.5C77.2 89 76 87.4 75 85.8C74 84.1 73 82.2 71.9 79.9C64.1 89.1 54.3 93.7 42.5 93.7C34.1 93.7 27.4 91.3 22.5 86.5C17.6 81.7 15.1 75.3 15.1 67.3C15.1 58.8 18.1 51.9 24.2 46.7C30.3 41.5 38.4 38.9 48.7 38.9C52.1 38.9 55.6 39.2 59.3 39.7C63 40.2 66.8 41 70.8 41.9L70.8 34.6C70.8 27 69.2 21.7 66.1 18.6C62.9 15.5 57.5 14 49.8 14C46.3 14 42.7 14.4 39 15.3C35.3 16.2 31.7 17.3 28.2 18.7C26.6 19.4 25.4 19.8 24.7 20C24 20.2 23.5 20.3 23.1 20.3C21.7 20.3 21 19.3 21 17.2L21 12.3C21 10.7 21.2 9.5 21.7 8.8C22.2 8.1 23.1 7.4 24.5 6.7C28 4.9 32.2 3.4 37.1 2.2C42 0.9 47.2 0.3 52.7 0.3C64.6 0.3 73.3 3 78.9 8.4C84.4 13.8 87.2 22 87.2 33L87.2 65.4L87.4 65.4ZM57.1 78.8C60.7 77.6 63.9 75.4 66.6 72.4C68.2 70.5 69.4 68.4 70 66C70.6 63.6 71 60.7 71 57.3L71 53.1C68.1 52.4 65 51.8 61.8 51.4C58.6 51 55.5 50.8 52.4 50.8C45.7 50.8 40.8 52.1 37.5 54.8C34.2 57.5 32.6 61.3 32.6 66.3C32.6 71 33.8 74.5 36.3 76.9C38.7 79.4 42.2 80.6 46.8 80.6C50.1 80.6 53.5 80 57.1 78.8ZM127.1 91.4C125.3 91.4 124.1 91.1 123.3 90.4C122.5 89.8 121.8 88.4 121.2 86.5L97.7 9.2C97.1 7.2 96.8 5.9 96.8 5.2C96.8 3.6 97.6 2.7 99.2 2.7L109 2.7C110.9 2.7 112.2 3 112.9 3.7C113.7 4.3 114.3 5.7 114.9 7.6L131.7 73.8L147.3 7.6C147.8 5.6 148.4 4.3 149.2 3.7C150 3.1 151.4 2.7 153.2 2.7L161.2 2.7C163.1 2.7 164.4 3 165.2 3.7C166 4.3 166.7 5.7 167.1 7.6L182.9 74.6L200.2 7.6C200.8 5.6 201.5 4.3 202.2 3.7C203 3.1 204.3 2.7 206.1 2.7L215.4 2.7C217 2.7 217.9 3.5 217.9 5.2C217.9 5.7 217.8 6.2 217.7 6.8C217.6 7.4 217.4 8.2 217 9.3L192.9 86.6C192.3 88.6 191.6 89.9 190.8 90.5C190 91.1 188.7 91.5 187 91.5L178.4 91.5C176.5 91.5 175.2 91.2 174.4 90.5C173.6 89.8 172.9 88.5 172.5 86.5L157 22L141.6 86.4C141.1 88.4 140.5 89.7 139.7 90.4C138.9 91.1 137.5 91.4 135.7 91.4L127.1 91.4ZM240.2 92.3C235.2 91.1 231.3 89.8 228.7 88.3C227.1 87.4 226 86.4 225.6 85.5C225.2 84.6 225 83.6 225 82.7L225 77.6C225 75.5 225.8 74.5 227.3 74.5C227.9 74.5 228.5 74.6 229.1 74.8C229.7 75 230.6 75.4 231.6 75.8C235 77.3 238.7 78.5 242.6 79.3C246.6 80.1 250.5 80.5 254.5 80.5C260.8 80.5 265.7 79.4 269.1 77.2C272.5 75 274.3 71.8 274.3 67.7C274.3 64.9 273.4 62.6 271.6 60.7C269.8 58.8 266.4 57.1 261.5 55.5L247 51C239.7 48.7 234.3 45.3 231 40.8C227.7 36.4 226 31.5 226 26.3C226 22.1 226.9 18.4 228.7 15.2C230.5 12 232.9 9.2 235.9 7C238.9 4.7 242.3 3 246.3 1.8C250.3 0.6 254.5 0.1 258.9 0.1C261.1 0.1 263.4 0.2 265.6 0.5C267.9 0.8 270 1.2 272.1 1.6C274.1 2.1 276 2.6 277.8 3.2C279.6 3.8 281 4.4 282 5C283.4 5.8 284.4 6.6 285 7.5C285.6 8.3 285.9 9.4 285.9 10.8L285.9 15.5C285.9 17.6 285.1 18.7 283.6 18.7C282.8 18.7 281.5 18.3 279.8 17.5C274.1 14.9 267.7 13.6 260.6 13.6C254.9 13.6 250.4 14.5 247.3 16.4C244.2 18.3 242.6 21.2 242.6 25.3C242.6 28.1 243.6 30.5 245.6 32.4C247.6 34.3 251.3 36.2 256.6 37.9L270.8 42.4C278 44.7 283.2 47.9 286.3 52C289.4 56.1 290.9 60.8 290.9 66C290.9 70.3 290 74.2 288.3 77.6C286.5 81 284.1 84 281 86.4C277.9 88.9 274.2 90.7 269.9 92C265.4 93.4 260.7 94.1 255.6 94.1C250.4 94.1 245.2 93.5 240.2 92.3Z" />
	<g id="Layer">
		<path id="Layer" fill-rule="evenodd" class="shp1" d="M274.5 142.7C241.6 167 193.8 179.9 152.7 179.9C95.1 179.9 43.2 158.6 4 123.2C0.9 120.4 3.7 116.6 7.4 118.8C49.8 143.4 102.1 158.3 156.2 158.3C192.7 158.3 232.8 150.7 269.7 135.1C275.2 132.6 279.9 138.7 274.5 142.7L274.5 142.7Z" />
		<path id="Layer" fill-rule="evenodd" class="shp1" d="M288.2 127.1C284 121.7 260.4 124.5 249.7 125.8C246.5 126.2 246 123.4 248.9 121.3C267.7 108.1 298.6 111.9 302.2 116.3C305.8 120.8 301.2 151.7 283.6 166.5C280.9 168.8 278.3 167.6 279.5 164.6C283.5 154.7 292.4 132.4 288.2 127.1L288.2 127.1Z" />
	</g>
</svg>