<svg version="1.2" baseProfile="tiny-ps" xmlns="http://www.w3.org/2000/svg" viewBox="0 0 65 65" width="36" height="36">
	<title>c-svg</title>
	<style>
		tspan { white-space:pre }
		.shp0 { fill: #a9b9cb } 
		.shp1 { fill: #7f8b99 } 
		.shp2 { fill: #ffffff } 
	</style>
	<path id="Layer" class="shp0" d="M59.25 20.65C59.25 19.64 59.03 18.75 58.59 17.99C58.17 17.24 57.53 16.61 56.67 16.11C49.58 12.03 42.48 7.95 35.4 3.86C33.49 2.76 31.64 2.8 29.74 3.92C26.92 5.58 12.79 13.67 8.58 16.11C6.85 17.12 6.01 18.65 6 20.65C6 28.87 6 37.09 6 45.31C6 46.29 6.21 47.16 6.62 47.92C7.05 48.69 7.7 49.33 8.58 49.84C12.79 52.28 26.92 60.37 29.74 62.04C31.64 63.16 33.49 63.2 35.4 62.09C42.49 58 49.58 53.93 56.67 49.84C57.55 49.33 58.2 48.69 58.63 47.91C59.04 47.16 59.25 46.29 59.25 45.31C59.25 45.31 59.25 28.87 59.25 20.65Z" />
	<path id="Layer" class="shp1" d="M32.71 32.9L6.62 47.92C7.05 48.69 7.7 49.33 8.58 49.84C12.79 52.28 26.92 60.37 29.74 62.04C31.64 63.16 33.49 63.2 35.4 62.09C42.49 58 49.58 53.93 56.67 49.84C57.55 49.33 58.2 48.69 58.63 47.91L32.71 32.9Z" />
	<path id="Layer" class="shp1" d="M24.98 37.35C26.5 40 29.35 41.78 32.63 41.78C35.92 41.78 38.79 39.97 40.3 37.3L32.71 32.9L24.98 37.35Z" />
	<path id="Layer" class="shp1" d="M59.25 20.65C59.25 19.64 59.03 18.75 58.59 17.99L32.71 32.9L58.63 47.91C59.04 47.16 59.25 46.29 59.25 45.31C59.25 45.31 59.25 28.87 59.25 20.65Z" />
	<path id="Layer" class="shp2" d="M40.3 37.3C38.79 39.97 35.92 41.78 32.63 41.78C29.35 41.78 26.5 40 24.98 37.35C24.22 36.02 23.82 34.51 23.82 32.98C23.82 28.12 27.76 24.17 32.63 24.17C35.88 24.17 38.72 25.94 40.24 28.56L47.94 24.13C44.88 18.85 39.17 15.3 32.63 15.3C22.86 15.3 14.94 23.21 14.94 32.98C14.94 36.18 15.8 39.19 17.28 41.78C20.34 47.09 26.06 50.66 32.63 50.66C39.2 50.66 44.94 47.07 47.98 41.75L40.3 37.3Z" />
</svg>