<svg version="1.2" baseProfile="tiny-ps" xmlns="http://www.w3.org/2000/svg" viewBox="0 0 419 319" width="36" height="36">
	<title>Wordmark1_blue_RGB-svg</title>
	<style>
		tspan { white-space:pre }
		.shp0 { fill: #009cde } 
	</style>
	<g id="Livello_2">
		<g id="Livello_1-2">
			<path id="Layer" class="shp0" d="M196.19 231.71L178.59 231.71L178.61 264.64C178.61 274.27 174.49 282.06 164.86 282.06C155.23 282.06 151.07 274.27 151.07 264.64L151.07 231.74L133.51 231.74L133.5 264.64C133.5 283.67 145.73 299.08 164.75 299.08C183.77 299.08 196.19 283.67 196.19 264.64L196.19 231.71Z" />
			<path id="Layer" class="shp0" d="M354.93 211.63L372.45 211.63L372.45 297.38L354.93 297.38L354.93 211.63Z" />
			<path id="Layer" class="shp0" d="M385.38 214.8L385.38 211.72L399.03 211.72L399.03 214.8L394.04 214.8L394.04 228.38L390.38 228.38L390.38 214.8L385.38 214.8L385.38 214.8Z" />
			<path id="Layer" class="shp0" d="M406.1 211.72L410 223.17L410.04 223.17L413.73 211.72L418.89 211.72L418.89 228.38L415.46 228.38L415.46 216.57L415.41 216.57L411.33 228.38L408.5 228.38L404.42 216.69L404.38 216.69L404.38 228.38L400.95 228.38L400.95 211.72L406.1 211.72L406.1 211.72Z" />
			<path id="Layer" class="shp0" d="M119.19 230.99C104.09 227.5 94.56 242.51 94.17 243.31C93.97 243.71 93.96 243.94 93.3 243.92C92.74 243.91 92.68 243.31 92.68 243.31L90.81 231.83L75.11 231.83L75.11 297.33L92.71 297.33L92.71 261.88C92.71 258.98 100.5 245.09 115.62 248.67C123.26 250.47 126.51 253.72 126.51 253.72L126.51 233.77C125.93 233.45 125.35 233.16 124.75 232.88C124.16 232.61 123.56 232.35 122.94 232.12C122.33 231.89 121.71 231.68 121.09 231.49C120.46 231.3 119.83 231.13 119.19 230.99" />
			<path id="Layer" fill-rule="evenodd" class="shp0" d="M202.42 318.9L202.42 265.13C202.42 251.97 209.88 239.94 221.66 234.09C233.45 228.23 247.53 229.55 258.03 237.49C268.52 245.43 273.61 258.63 271.17 271.57C268.73 284.5 259.18 294.94 246.51 298.51C230.23 302.47 222.9 289.83 221.57 286.51C221.43 286.17 221.3 285.79 220.73 285.8C220.1 285.81 220.07 286.51 220.07 286.51L220.07 295.34L220.06 295.33L220.06 318.9L202.42 318.9ZM237.11 247.58C234.81 247.58 232.53 248.04 230.4 248.92C228.27 249.8 226.33 251.1 224.7 252.72C223.07 254.35 221.78 256.29 220.9 258.42C220.02 260.55 219.56 262.83 219.56 265.13C219.56 272.23 223.84 278.63 230.4 281.35C236.96 284.07 244.51 282.57 249.53 277.55C254.55 272.53 256.05 264.98 253.33 258.42C250.61 251.86 244.21 247.58 237.11 247.58Z" />
			<path id="Layer" fill-rule="evenodd" class="shp0" d="M330.17 286.51C330.17 286.51 330.15 285.81 329.51 285.8C328.94 285.79 328.82 286.17 328.68 286.51C327.34 289.83 320.01 302.47 303.73 298.51C291.06 294.93 281.51 284.5 279.07 271.56C276.63 258.63 281.72 245.43 292.22 237.49C302.71 229.55 316.8 228.23 328.58 234.09C340.37 239.95 347.82 251.97 347.82 265.13L347.82 297.36L330.18 297.36M329.34 258.42C328.46 256.29 327.17 254.35 325.54 252.72C323.91 251.1 321.98 249.8 319.85 248.92C317.72 248.04 315.44 247.58 313.13 247.58C306.03 247.58 299.63 251.86 296.91 258.42C294.2 264.98 295.7 272.53 300.72 277.55C305.74 282.57 313.29 284.07 319.85 281.35C326.41 278.63 330.68 272.23 330.68 265.13C330.68 262.83 330.23 260.55 329.34 258.42Z" />
			<path id="Layer" fill-rule="evenodd" class="shp0" d="M20.01 297.22L0 297.22L0 211.6L21.47 211.6C47.47 211.6 67.18 216.37 67.18 254.41C67.18 292.08 46.3 297.22 20.01 297.22ZM24.79 226.44L17.71 226.44L17.71 282.36L24.98 282.55C39.87 282.55 49.47 281.19 49.47 254.41C49.47 228.72 41 226.44 24.79 226.44L24.79 226.44Z" />
			<path id="Layer" fill-rule="evenodd" class="shp0" d="M226 40.33C245.99 60.29 268.64 82.93 268.64 116.87C268.65 136.09 261.02 154.52 247.43 168.11C233.84 181.71 215.41 189.34 196.19 189.34C176.97 189.34 158.54 181.71 144.95 168.11C131.36 154.52 123.73 136.09 123.74 116.87C123.74 82.92 146.39 60.29 166.37 40.33C179.69 27.01 192.4 14.32 196.19 0C199.97 14.32 212.68 27.01 226 40.33M154.53 133.75C154.99 133.76 155.76 133.82 156.29 132.35C158.83 125.26 179.3 104.73 184.1 99.8C184.29 99.65 184.45 99.46 184.56 99.24C184.67 99.03 184.73 98.79 184.75 98.55C184.76 98.31 184.72 98.06 184.63 97.84C184.55 97.61 184.41 97.4 184.24 97.23L164.11 75.25C133.7 105.34 150.09 133.6 154.53 133.75ZM196.19 170.99C199.46 170.99 202.7 170.35 205.73 169.1C208.75 167.84 211.5 166.01 213.81 163.69C216.12 161.38 217.96 158.63 219.21 155.61C220.46 152.59 221.11 149.35 221.11 146.07C221.12 144.57 220.99 143.06 220.73 141.58C220.47 140.1 220.06 138.64 219.53 137.23C219 135.82 218.33 134.47 217.55 133.18C216.77 131.89 215.86 130.68 214.86 129.56C210.18 124.35 196.19 108.67 196.19 108.67C196.19 108.67 181.98 124.12 177.48 129.62C176.51 130.75 175.64 131.97 174.88 133.26C174.12 134.55 173.47 135.9 172.94 137.3C172.41 138.7 172.01 140.15 171.73 141.62C171.45 143.09 171.3 144.58 171.27 146.07C171.27 149.35 171.92 152.59 173.17 155.61C174.42 158.63 176.26 161.38 178.57 163.69C180.88 166.01 183.63 167.84 186.65 169.1C189.68 170.35 192.92 170.99 196.19 170.99ZM243.88 130.58C246.4 125.08 250.67 108.41 238.29 89.15C225.91 69.88 196.19 41.68 196.19 41.68C196.19 41.68 186.22 51.64 182.81 55.06C180.08 57.79 174.22 62.99 181.05 70.37C188.81 78.76 230.32 122.14 235.07 129.18C237.24 132.38 237.55 133.89 240.48 133.78C242.13 133.72 243.35 131.76 243.88 130.58L243.88 130.58Z" />
		</g>
	</g>
</svg>