<svg version="1.2" baseProfile="tiny-ps" xmlns="http://www.w3.org/2000/svg" viewBox="0 0 66 66" width="36" height="36">
	<title>figma-svg</title>
	<style>
		tspan { white-space:pre }
		.shp0 { fill: #0acf83 } 
		.shp1 { fill: #a259ff } 
		.shp2 { fill: #f24e1e } 
		.shp3 { fill: #ff7262 } 
		.shp4 { fill: #1abcfe } 
	</style>
	<path id="Layer" class="shp0" d="M24 63C26.65 63 29.2 61.95 31.07 60.07C32.95 58.2 34 55.65 34 53L34 43L24 43C21.35 43 18.8 44.05 16.93 45.93C15.05 47.8 14 50.35 14 53C14 55.65 15.05 58.2 16.93 60.07C18.8 61.95 21.35 63 24 63L24 63Z" />
	<path id="Layer" class="shp1" d="M14 33C14 30.35 15.05 27.8 16.93 25.93C18.8 24.05 21.35 23 24 23L34 23L34 43L24 43C21.35 43 18.8 41.95 16.93 40.07C15.05 38.2 14 35.65 14 33L14 33Z" />
	<path id="Layer" class="shp2" d="M14 13C14 10.35 15.05 7.81 16.93 5.93C18.8 4.06 21.34 3 23.99 3L33.99 3L33.99 23L24 23C21.35 23 18.8 21.95 16.93 20.07C15.05 18.2 14 15.65 14 13L14 13Z" />
	<path id="Layer" class="shp3" d="M34 3L44 3C46.65 3 49.2 4.05 51.07 5.93C52.95 7.8 54 10.35 54 13C54 15.65 52.95 18.2 51.07 20.07C49.2 21.95 46.65 23 44 23L34 23L34 3Z" />
	<path id="Layer" class="shp4" d="M54 33C54 35.65 52.95 38.2 51.07 40.07C49.2 41.95 46.65 43 44 43C41.35 43 38.8 41.95 36.93 40.07C35.05 38.2 34 35.65 34 33C34 30.35 35.05 27.8 36.93 25.93C38.8 24.05 41.35 23 44 23C46.65 23 49.2 24.05 51.07 25.93C52.95 27.8 54 30.35 54 33L54 33Z" />
</svg>