<svg version="1.2" baseProfile="tiny-ps" xmlns="http://www.w3.org/2000/svg" viewBox="0 0 256 256" width="36" height="36">
	<title>javascript-js-seeklogo</title>
	<style>
		tspan { white-space:pre }
		.shp0 { fill: #f7df1e } 
		.shp1 { fill: #000000 } 
	</style>
	<g id="Layer">
		<path id="Layer" class="shp0" d="M0 0L256 0L256 256L0 256L0 0Z" />
		<path id="Layer" class="shp1" d="M67.31 213.93L86.9 202.08C90.68 208.78 94.12 214.45 102.37 214.45C110.27 214.45 115.26 211.35 115.26 199.33L115.26 117.53L139.31 117.53L139.31 199.67C139.31 224.58 124.71 235.93 103.4 235.93C84.15 235.93 72.98 225.96 67.31 213.93" />
		<path id="Layer" class="shp1" d="M152.38 211.35L171.97 200.01C177.13 208.43 183.83 214.62 195.68 214.62C205.65 214.62 212.01 209.64 212.01 202.76C212.01 194.51 205.48 191.59 194.48 186.78L188.47 184.2C171.11 176.81 159.6 167.54 159.6 147.94C159.6 129.9 173.34 116.15 194.83 116.15C210.12 116.15 221.12 121.48 229.02 135.4L210.29 147.43C206.17 140.04 201.7 137.12 194.83 137.12C187.78 137.12 183.31 141.59 183.31 147.43C183.31 154.65 187.78 157.57 198.09 162.04L204.1 164.61C224.55 173.38 236.07 182.31 236.07 202.42C236.07 224.07 219.06 235.93 196.2 235.93C173.86 235.93 159.43 225.27 152.38 211.35" />
	</g>
</svg>