<svg version="1.2" baseProfile="tiny-ps" xmlns="http://www.w3.org/2000/svg" viewBox="0 0 256 289" width="36" height="36">
	<title>nodejs-seeklogo</title>
	<style>
		tspan { white-space:pre }
		.shp0 { fill: #539e43 } 
	</style>
	<g id="Layer">
		<path id="Layer" fill-rule="evenodd" class="shp0" d="M116.87 285.55L81.62 264.61C76.32 261.7 78.97 260.64 80.56 260.11C87.72 257.72 89.04 257.19 96.46 252.95C97.26 252.42 98.32 252.69 99.11 253.22L126.14 269.38C127.2 269.91 128.53 269.91 129.33 269.38L235.06 208.17C236.12 207.64 236.65 206.58 236.65 205.25L236.65 83.08C236.65 81.76 236.12 80.7 235.06 80.17L129.33 19.21C128.27 18.68 126.94 18.68 126.14 19.21L20.41 80.17C19.35 80.7 18.82 82.02 18.82 83.08L18.82 205.25C18.82 206.31 19.35 207.64 20.41 208.17L49.29 224.86C64.93 232.81 74.73 223.54 74.73 214.26L74.73 93.68C74.73 92.09 76.06 90.5 77.91 90.5L91.43 90.5C93.02 90.5 94.61 91.83 94.61 93.68L94.61 214.26C94.61 235.2 83.21 247.39 63.34 247.39C57.24 247.39 52.47 247.39 38.96 240.76L11.13 224.86C4.24 220.89 0 213.47 0 205.52L0 83.35C0 75.4 4.24 67.98 11.13 64L116.87 2.78C123.49 -0.93 132.51 -0.93 139.13 2.78L244.87 64C251.76 67.98 256 75.4 256 83.35L256 205.52C256 213.47 251.76 220.89 244.87 224.86L139.13 286.08C135.69 287.67 131.71 288.46 128 288.46C124.02 288.46 120.31 287.4 116.87 285.55ZM104.68 165.23C104.68 163.64 106 162.05 107.86 162.05L121.64 162.05C123.23 162.05 124.55 163.11 124.55 164.7C126.67 178.75 132.77 185.64 160.86 185.64C183.12 185.64 192.66 180.6 192.66 168.68C192.66 161.79 190.01 156.75 155.3 153.31C126.41 150.39 108.39 144.03 108.39 120.98C108.39 99.51 126.41 86.79 156.62 86.79C190.54 86.79 207.24 98.45 209.36 123.89C209.36 124.69 209.09 125.48 208.56 126.28C208.03 126.81 207.24 127.34 206.44 127.34L192.66 127.34C191.34 127.34 190.01 126.28 189.75 124.95C186.57 110.38 178.35 105.61 156.62 105.61C132.24 105.61 129.33 114.09 129.33 120.45C129.33 128.13 132.77 130.52 165.63 134.76C198.23 139 213.6 145.09 213.6 167.88C213.33 191.2 194.25 204.46 160.6 204.46C114.22 204.46 104.68 183.25 104.68 165.23Z" />
	</g>
</svg>