<svg version="1.2" baseProfile="tiny-ps" xmlns="http://www.w3.org/2000/svg" viewBox="0 0 67 67" width="36" height="36">
	<title>python-svg</title>
	<defs>
		<linearGradient id="grd1" gradientUnits="userSpaceOnUse"  x1="13.188" y1="12.128" x2="38.101" y2="36.984">
			<stop offset="0" stop-color="#387eb8"  />
			<stop offset="1" stop-color="#366994"  />
		</linearGradient>
		<linearGradient id="grd2" gradientUnits="userSpaceOnUse"  x1="27.927" y1="28.32" x2="56.389" y2="53.168">
			<stop offset="0" stop-color="#ffe052"  />
			<stop offset="1" stop-color="#ffc331"  />
		</linearGradient>
	</defs>
	<style>
		tspan { white-space:pre }
		.shp0 { fill: url(#grd1) } 
		.shp1 { fill: url(#grd2) } 
	</style>
	<path id="Layer" fill-rule="evenodd" class="shp0" d="M34.1 7C48.01 7 46.93 13.96 46.93 13.96L46.93 25.38C46.93 32.34 39.86 32.23 39.86 32.23L27.18 32.23C19.63 32.23 19.87 39.75 19.87 39.75L19.87 46.05L15.52 46.05C15.52 46.05 8 46.6 8 33.09C8 19.59 16.52 20.64 16.52 20.64L34.22 20.64L34.22 18.76L21.56 18.76L21.56 12.78C21.56 12.78 20.72 7.02 34.03 7.02L34.1 7ZM27.09 11.05C26.49 11.05 25.91 11.29 25.49 11.71C25.06 12.14 24.82 12.72 24.82 13.32L24.82 13.36C24.83 13.81 24.97 14.25 25.23 14.62C25.49 14.98 25.86 15.27 26.28 15.43C26.7 15.59 27.16 15.62 27.59 15.53C28.03 15.43 28.43 15.2 28.74 14.87C29.05 14.55 29.26 14.14 29.34 13.69C29.41 13.25 29.36 12.79 29.17 12.38C28.99 11.97 28.69 11.62 28.31 11.38C27.93 11.14 27.49 11.02 27.04 11.03L27.09 11.05Z" />
	<path id="Layer" fill-rule="evenodd" class="shp1" d="M34.4 59.17L34.33 59.17C20.43 59.17 21.5 52.21 21.5 52.21L21.5 40.71C21.5 33.75 28.58 33.86 28.58 33.86L41.26 33.86C48.82 33.86 48.58 26.34 48.58 26.34L48.58 20.12L52.98 20.12C52.98 20.12 60.5 19.64 60.5 33.08C60.5 46.51 51.98 45.55 51.98 45.55L34.22 45.55L34.22 47.43L46.88 47.43L46.88 53.39C46.88 53.39 47.72 59.17 34.41 59.17L34.4 59.17ZM41.35 55.14C41.95 55.14 42.53 54.9 42.96 54.47C43.39 54.05 43.63 53.47 43.63 52.86L43.63 52.81C43.61 52.36 43.47 51.92 43.21 51.55C42.95 51.19 42.59 50.9 42.17 50.74C41.75 50.58 41.29 50.55 40.85 50.64C40.41 50.74 40.01 50.97 39.7 51.3C39.39 51.62 39.18 52.03 39.11 52.48C39.03 52.92 39.09 53.38 39.27 53.79C39.45 54.2 39.75 54.55 40.13 54.79C40.51 55.03 40.96 55.15 41.41 55.14L41.35 55.14Z" />
</svg>